<svg width="227" height="175" viewBox="0 0 227 175" fill="none" xmlns="http://www.w3.org/2000/svg">
<path d="M101.192 17.0391C79.3041 18.2895 71.0774 15.9645 70.8635 1H155.142C152.473 11.8622 145.463 16.4525 136.915 17.6252C128.023 17.7545 120.659 19.6192 118.981 27.6832V72.4467C115.846 82.7339 112.668 86.2848 103.233 86.7361V20.9759C106.095 3.00699 127.223 5.85797 155.142 1C110.835 4.7206 104.58 3.20186 101.192 17.0391Z" fill="#F07001"/>
<path d="M155.142 1H70.8635C71.0774 15.9645 79.3041 18.2895 101.192 17.0391C104.58 3.20186 110.835 4.7206 155.142 1ZM155.142 1C127.223 5.85797 106.095 3.00699 103.233 20.9759V86.7361C112.668 86.2848 115.846 82.7339 118.981 72.4467V27.6832C120.659 19.6192 128.023 17.7545 136.915 17.6252C145.463 16.4525 152.473 11.8622 155.142 1Z" stroke="#E75600"/>
<path d="M103.233 89.6522V86.9684C112.689 86.5935 115.495 80.7825 118.981 71.5718C118.756 77.7411 115.127 86.8405 103.233 89.6522Z" fill="#E75600" stroke="#E75600"/>
<path d="M84.6718 113.566C84.8918 113.566 85.0818 113.646 85.2418 113.806C85.4018 113.966 85.4818 114.156 85.4818 114.376V119.206C85.4818 119.426 85.4018 119.616 85.2418 119.776C85.0818 119.936 84.8918 120.016 84.6718 120.016H78.2218V133.756C78.2218 133.976 78.1418 134.166 77.9818 134.326C77.8218 134.486 77.6318 134.566 77.4118 134.566H71.2318C71.0118 134.566 70.8218 134.486 70.6618 134.326C70.5018 134.166 70.4218 133.976 70.4218 133.756V120.016H63.9718C63.7518 120.016 63.5618 119.936 63.4018 119.776C63.2418 119.616 63.1618 119.426 63.1618 119.206V114.376C63.1618 114.156 63.2418 113.966 63.4018 113.806C63.5618 113.646 63.7518 113.566 63.9718 113.566H84.6718ZM95.79 133.546C95.53 134.226 95.08 134.566 94.44 134.566H88.77C88.59 134.566 88.43 134.506 88.29 134.386C88.17 134.246 88.11 134.086 88.11 133.906L88.14 133.726L94.68 114.556C94.76 114.296 94.91 114.066 95.13 113.866C95.35 113.666 95.65 113.566 96.03 113.566H104.37C104.75 113.566 105.05 113.666 105.27 113.866C105.49 114.066 105.64 114.296 105.72 114.556L112.26 133.726L112.29 133.906C112.29 134.086 112.22 134.246 112.08 134.386C111.96 134.506 111.81 134.566 111.63 134.566H105.96C105.32 134.566 104.87 134.226 104.61 133.546L103.86 131.446H96.54L95.79 133.546ZM100.2 119.356L98.07 125.596H102.33L100.2 119.356ZM127.548 121.186C129.748 121.426 131.508 121.816 132.828 122.356C134.168 122.896 135.138 123.606 135.738 124.486C136.338 125.366 136.638 126.466 136.638 127.786C136.638 129.226 136.168 130.486 135.228 131.566C134.308 132.626 133.028 133.446 131.388 134.026C129.748 134.586 127.878 134.866 125.778 134.866C123.438 134.866 121.458 134.576 119.838 133.996C118.218 133.416 117.008 132.646 116.208 131.686C115.408 130.706 115.008 129.636 115.008 128.476C115.008 128.276 115.068 128.116 115.188 127.996C115.328 127.876 115.498 127.816 115.698 127.816H121.848C122.268 127.816 122.608 127.946 122.868 128.206C123.208 128.526 123.588 128.746 124.008 128.866C124.428 128.966 125.018 129.016 125.778 129.016C127.678 129.016 128.628 128.726 128.628 128.146C128.628 127.906 128.498 127.706 128.238 127.546C127.998 127.366 127.558 127.216 126.918 127.096C126.298 126.956 125.378 126.816 124.158 126.676C121.418 126.356 119.318 125.676 117.858 124.636C116.398 123.576 115.668 122.086 115.668 120.166C115.668 118.806 116.078 117.606 116.898 116.566C117.718 115.526 118.878 114.716 120.378 114.136C121.898 113.556 123.658 113.266 125.658 113.266C127.738 113.266 129.558 113.596 131.118 114.256C132.678 114.896 133.868 115.696 134.688 116.656C135.508 117.616 135.918 118.556 135.918 119.476C135.918 119.676 135.848 119.836 135.708 119.956C135.588 120.076 135.418 120.136 135.198 120.136H128.748C128.408 120.136 128.098 120.016 127.818 119.776C127.598 119.576 127.338 119.416 127.038 119.296C126.738 119.176 126.278 119.116 125.658 119.116C124.318 119.116 123.648 119.396 123.648 119.956C123.648 120.256 123.908 120.496 124.428 120.676C124.948 120.836 125.988 121.006 127.548 121.186ZM164.077 133.516C164.157 133.636 164.197 133.766 164.197 133.906C164.197 134.086 164.127 134.246 163.987 134.386C163.867 134.506 163.717 134.566 163.537 134.566H155.797C155.337 134.566 154.977 134.406 154.717 134.086L149.497 127.636V133.756C149.497 133.976 149.417 134.166 149.257 134.326C149.097 134.486 148.907 134.566 148.687 134.566H142.507C142.287 134.566 142.097 134.486 141.937 134.326C141.777 134.166 141.697 133.976 141.697 133.756V114.376C141.697 114.156 141.777 113.966 141.937 113.806C142.097 113.646 142.287 113.566 142.507 113.566H148.687C148.907 113.566 149.097 113.646 149.257 113.806C149.417 113.966 149.497 114.156 149.497 114.376V120.016L154.237 114.076C154.537 113.736 154.907 113.566 155.347 113.566H162.577C162.757 113.566 162.907 113.636 163.027 113.776C163.167 113.896 163.237 114.046 163.237 114.226C163.237 114.386 163.187 114.526 163.087 114.646L155.977 123.316L164.077 133.516ZM71.9276 143.566C72.1476 143.566 72.3376 143.646 72.4976 143.806C72.6576 143.966 72.7376 144.156 72.7376 144.376V149.206C72.7376 149.426 72.6576 149.616 72.4976 149.776C72.3376 149.936 72.1476 150.016 71.9276 150.016H65.4776V163.756C65.4776 163.976 65.3976 164.166 65.2376 164.326C65.0776 164.486 64.8876 164.566 64.6676 164.566H58.4876C58.2676 164.566 58.0776 164.486 57.9176 164.326C57.7576 164.166 57.6776 163.976 57.6776 163.756V150.016H51.2276C51.0076 150.016 50.8176 149.936 50.6576 149.776C50.4976 149.616 50.4176 149.426 50.4176 149.206V144.376C50.4176 144.156 50.4976 143.966 50.6576 143.806C50.8176 143.646 51.0076 143.566 51.2276 143.566H71.9276ZM83.0459 163.546C82.7859 164.226 82.3359 164.566 81.6959 164.566H76.0259C75.8459 164.566 75.6859 164.506 75.5459 164.386C75.4259 164.246 75.3659 164.086 75.3659 163.906L75.3959 163.726L81.9359 144.556C82.0159 144.296 82.1659 144.066 82.3859 143.866C82.6059 143.666 82.9059 143.566 83.2859 143.566H91.6259C92.0059 143.566 92.3059 143.666 92.5259 143.866C92.7459 144.066 92.8959 144.296 92.9759 144.556L99.5159 163.726L99.5459 163.906C99.5459 164.086 99.4759 164.246 99.3359 164.386C99.2159 164.506 99.0659 164.566 98.8859 164.566H93.2159C92.5759 164.566 92.1259 164.226 91.8659 163.546L91.1159 161.446H83.7959L83.0459 163.546ZM87.4559 149.356L85.3259 155.596H89.5859L87.4559 149.356ZM117.084 144.376C117.384 143.836 117.814 143.566 118.374 143.566H123.864C124.084 143.566 124.274 143.646 124.434 143.806C124.594 143.966 124.674 144.156 124.674 144.376V163.756C124.674 163.976 124.594 164.166 124.434 164.326C124.274 164.486 124.084 164.566 123.864 164.566H118.434C118.214 164.566 118.024 164.486 117.864 164.326C117.704 164.166 117.624 163.976 117.624 163.756V154.456L115.434 158.776C115.374 158.916 115.234 159.076 115.014 159.256C114.794 159.436 114.514 159.526 114.174 159.526H112.134C111.794 159.526 111.514 159.436 111.294 159.256C111.074 159.076 110.934 158.916 110.874 158.776L108.684 154.456V163.756C108.684 163.976 108.604 164.166 108.444 164.326C108.284 164.486 108.094 164.566 107.874 164.566H102.444C102.224 164.566 102.034 164.486 101.874 164.326C101.714 164.166 101.634 163.976 101.634 163.756V144.376C101.634 144.156 101.714 143.966 101.874 143.806C102.034 143.646 102.224 143.566 102.444 143.566H107.934C108.494 143.566 108.924 143.836 109.224 144.376L113.154 151.576L117.084 144.376ZM148.662 158.716C148.882 158.716 149.072 158.796 149.232 158.956C149.392 159.116 149.472 159.306 149.472 159.526V163.756C149.472 163.976 149.392 164.166 149.232 164.326C149.072 164.486 148.882 164.566 148.662 164.566H129.702C129.482 164.566 129.292 164.486 129.132 164.326C128.972 164.166 128.892 163.976 128.892 163.756V144.376C128.892 144.156 128.972 143.966 129.132 143.806C129.292 143.646 129.482 143.566 129.702 143.566H148.362C148.582 143.566 148.772 143.646 148.932 143.806C149.092 143.966 149.172 144.156 149.172 144.376V148.606C149.172 148.826 149.092 149.016 148.932 149.176C148.772 149.336 148.582 149.416 148.362 149.416H136.692V151.306H146.712C146.932 151.306 147.122 151.386 147.282 151.546C147.442 151.706 147.522 151.896 147.522 152.116V156.016C147.522 156.236 147.442 156.426 147.282 156.586C147.122 156.746 146.932 156.826 146.712 156.826H136.692V158.716H148.662ZM176.641 163.636C176.681 163.716 176.701 163.806 176.701 163.906C176.701 164.086 176.631 164.246 176.491 164.386C176.371 164.506 176.221 164.566 176.041 164.566H169.231C168.951 164.566 168.691 164.496 168.451 164.356C168.231 164.216 168.071 164.036 167.971 163.816L165.331 157.876H162.811V163.756C162.811 163.976 162.731 164.166 162.571 164.326C162.411 164.486 162.221 164.566 162.001 164.566H155.521C155.301 164.566 155.111 164.486 154.951 164.326C154.791 164.166 154.711 163.976 154.711 163.756V144.376C154.711 144.156 154.791 143.966 154.951 143.806C155.111 143.646 155.301 143.566 155.521 143.566H167.191C168.991 143.566 170.561 143.856 171.901 144.436C173.261 145.016 174.301 145.856 175.021 146.956C175.741 148.056 176.101 149.346 176.101 150.826C176.101 153.546 175.051 155.516 172.951 156.736L176.641 163.636ZM166.561 152.326C167.001 152.326 167.341 152.186 167.581 151.906C167.821 151.606 167.941 151.236 167.941 150.796C167.941 150.356 167.821 149.976 167.581 149.656C167.361 149.316 167.021 149.146 166.561 149.146H162.811V152.326H166.561Z" fill="#F07001"/>
<path d="M68.5306 1.29162L70.8635 1C70.1141 9.75592 76.0888 13.7656 83.6948 16.7474C74.7773 15.2627 67.7633 11.7592 68.5306 1.29162Z" fill="#E75600"/>
<path d="M157.62 1H154.996C153.03 10.1388 148.345 13.5902 137.061 17.6223C147.282 16.9111 152.938 14.5063 157.62 1Z" fill="#E75600"/>
<path d="M68.5306 1.29162L70.8635 1C70.1141 9.75592 76.0888 13.7656 83.6948 16.7474C74.7773 15.2627 67.7633 11.7592 68.5306 1.29162Z" stroke="#E75600"/>
<path d="M157.62 1H154.996C153.03 10.1388 148.345 13.5902 137.061 17.6223C147.282 16.9111 152.938 14.5063 157.62 1Z" stroke="#E75600"/>
</svg>
