<svg width="306" height="299" viewBox="0 0 306 299" fill="none" xmlns="http://www.w3.org/2000/svg">
<path d="M181.99 165.448H129.469V254.018H181.99V165.448Z" fill="#FFA834"/>
<path d="M181.99 165.447H155.73V254.016H181.99V165.447Z" fill="#FF9928"/>
<path d="M190.74 219.27H120.713C113.437 219.27 107.242 221.842 102.127 226.983C97.0103 232.126 94.4528 238.353 94.4528 245.665V280.859C94.4528 283.322 95.298 285.404 96.9907 287.105C98.6638 288.806 100.736 289.655 103.206 289.655H208.247C210.699 289.655 212.77 288.806 214.462 287.105C216.155 285.404 217 283.322 217 280.859V245.665C217 238.372 214.443 232.144 209.327 226.983C204.211 221.842 198.016 219.27 190.74 219.27Z" fill="#FFDB40"/>
<path d="M190.74 219.269H155.725V289.654H208.247C210.699 289.654 212.769 288.805 214.462 287.103C216.155 285.403 217 283.32 217 280.858V245.664C217 238.37 214.443 232.143 209.326 226.982C204.211 221.841 198.016 219.269 190.74 219.269Z" fill="#FFCC33"/>
<path d="M85.698 280.859C83.2281 280.859 81.156 281.709 79.4829 283.41C77.7913 285.111 76.9449 287.194 76.9449 289.657C76.9449 292.121 77.7913 294.205 79.4829 295.904C81.156 297.605 83.2281 298.457 85.698 298.457H225.753C228.205 298.457 230.277 297.605 231.97 295.904C233.661 294.205 234.508 292.121 234.508 289.657C234.508 287.194 233.661 285.111 231.97 283.41C230.277 281.709 228.205 280.859 225.753 280.859H85.698Z" fill="#FFA834"/>
<path d="M155.725 280.859V298.457H225.752C228.203 298.457 230.276 297.605 231.968 295.904C233.661 294.205 234.506 292.121 234.506 289.657C234.506 287.194 233.661 285.111 231.968 283.41C230.276 281.709 228.203 280.859 225.752 280.859H155.725Z" fill="#FF9928"/>
<path d="M74.1123 33.4209C74.1123 30.9963 73.2555 28.924 71.5443 27.2041C69.8331 25.483 67.7703 24.623 65.358 24.623H8.75307C6.34082 24.623 4.2791 25.483 2.56677 27.2041C0.85559 28.924 0 30.9963 0 33.4209V52.718C0 63.6867 1.81842 74.3621 5.45525 84.7443C8.97677 94.8332 14.0434 104.119 20.6575 112.605C27.252 121.07 34.9938 128.246 43.883 134.132C53.0258 140.173 62.8973 144.522 73.4988 147.182L83.5652 149.733C85.9002 150.32 88.098 149.988 90.1597 148.736C92.2411 147.485 93.574 145.677 94.1575 143.31C94.7605 140.964 94.4388 138.755 93.1947 136.683C91.9493 134.591 90.1505 133.252 87.7971 132.665L77.7306 130.143C69.0548 127.952 60.9821 124.385 53.5124 119.439C46.218 114.589 39.8668 108.695 34.4588 101.754C29.0312 94.8135 24.8686 87.2071 21.9709 78.9366C18.9948 70.432 17.5061 61.6932 17.5061 52.718V42.2188H65.358C67.7703 42.2188 69.8331 41.3588 71.5443 39.6389C73.2555 37.9178 74.1123 35.8455 74.1123 33.4209Z" fill="#FFA834"/>
<path d="M303.433 26.0442C301.722 24.3231 299.659 23.4631 297.246 23.4631H240.612C238.2 23.4631 236.139 24.3231 234.427 26.0442C232.715 27.7641 231.858 29.8364 231.858 32.261C231.858 34.6856 232.715 36.759 234.427 38.479C236.139 40.1989 238.2 41.06 240.612 41.06H288.493V55.4882C288.493 72.9101 283.308 88.6781 272.941 102.795C262.573 116.872 249.102 126.5 232.529 131.681L212.981 137.811C210.666 138.535 208.945 139.971 207.816 142.121C206.688 144.273 206.483 146.502 207.203 148.809C207.922 151.116 209.342 152.836 211.462 153.971C213.602 155.124 215.839 155.339 218.174 154.616L237.724 148.486C247.722 145.357 256.971 140.734 265.471 134.614C273.777 128.612 280.965 121.475 287.033 113.206C293.122 104.935 297.782 95.9415 301.009 86.2234C304.336 76.2526 306 66.0072 306 55.4882V32.261C306 29.8364 305.144 27.7641 303.433 26.0442Z" fill="#FF9928"/>
<path d="M252.018 17.4861C252.192 15.1698 251.511 13.137 249.975 11.3908C248.456 9.64358 246.514 8.64187 244.139 8.38354H67.3206C64.9476 8.64187 62.9908 9.64358 61.4537 11.3908C59.9178 13.1555 59.2479 15.1884 59.4427 17.4861L69.9173 117.69C71.0451 127.987 74.0696 137.686 78.991 146.789C83.7763 155.615 90.0687 163.356 97.8681 170.013C105.649 176.668 114.432 181.799 124.217 185.404C134.273 189.117 144.779 190.975 155.73 190.975C166.662 190.975 177.165 189.117 187.241 185.404C197.006 181.799 205.79 176.668 213.591 170.013C221.372 163.375 227.654 155.633 232.44 146.789C237.36 137.686 240.385 127.987 241.514 117.69L252.018 17.4861Z" fill="#FFDB40"/>
<path d="M252.018 17.4849C252.193 15.1686 251.512 13.1358 249.976 11.3896C248.458 9.64236 246.514 8.64065 244.139 8.38232H155.73V190.973C166.662 190.973 177.166 189.116 187.243 185.402C197.007 181.798 205.79 176.667 213.591 170.012C221.372 163.374 227.654 155.631 232.44 146.787C237.36 137.685 240.385 127.986 241.514 117.689L252.018 17.4849Z" fill="#FFCC33"/>
<path d="M194.757 84.1813C193.908 81.6507 192.175 80.2224 189.558 79.8954L170.082 76.9528L161.448 59.2976C160.883 58.2451 160.069 57.4201 159.008 56.8227C157.99 56.2538 156.894 55.9707 155.72 55.9707C154.532 55.9707 153.429 56.2538 152.411 56.8227C151.35 57.4201 150.544 58.2451 149.992 59.2976L141.336 76.9528L121.862 79.8954C119.245 80.2224 117.519 81.6507 116.684 84.1813C115.85 86.7262 116.388 88.9223 118.297 90.7703L132.426 104.588L129.117 124.484C128.678 127.085 129.519 129.167 131.641 130.731C133.776 132.295 135.99 132.465 138.281 131.243L155.72 122.031L173.159 131.243C175.451 132.465 177.657 132.295 179.778 130.731C181.914 129.167 182.762 127.077 182.324 124.462L179.016 104.588L193.143 90.7703C195.053 88.9223 195.591 86.7262 194.757 84.1813Z" fill="#FFA834"/>
<path d="M193.143 90.7711C195.052 88.9231 195.591 86.7271 194.756 84.1822C193.907 81.6516 192.175 80.2232 189.558 79.8963L170.082 76.9536L161.448 59.2976C160.883 58.2451 160.069 57.421 159.008 56.8235C157.99 56.2555 156.894 55.9707 155.72 55.9707V122.031L173.138 131.266C175.429 132.473 177.642 132.295 179.778 130.732C181.913 129.168 182.762 127.086 182.324 124.485L179.014 104.611L193.143 90.7711Z" fill="#FF9928"/>
<path d="M264.166 10.0794C264.166 7.25817 263.358 4.87238 261.745 2.92338C260.132 0.975718 258.158 0.0012207 255.822 0.0012207H55.6184C53.2635 0.0012207 51.2888 0.975718 49.6955 2.92338C48.0823 4.87238 47.2758 7.25817 47.2758 10.0794C47.2758 12.902 48.0823 15.2865 49.6955 17.2355C51.2888 19.1845 53.2635 20.1576 55.6184 20.1576H255.822C258.158 20.1576 260.132 19.1845 261.745 17.2355C263.358 15.2865 264.166 12.902 264.166 10.0794Z" fill="#FFA834"/>
<path d="M264.165 10.0782C264.165 7.25695 263.358 4.87116 261.745 2.92216C260.132 0.974497 258.158 0 255.822 0H155.72V20.1564H255.822C258.158 20.1564 260.132 19.1833 261.745 17.2343C263.358 15.2853 264.165 12.9008 264.165 10.0782Z" fill="#FF9928"/>
</svg>
