<svg width="142" height="142" viewBox="0 0 142 142" fill="none" xmlns="http://www.w3.org/2000/svg">
<path d="M141.532 70.766C141.532 109.849 109.849 141.532 70.766 141.532C31.6828 141.532 0 109.849 0 70.766C0 31.6828 31.6828 0 70.766 0C109.849 0 141.532 31.6828 141.532 70.766Z" fill="white"/>
<path d="M61.9385 53.7815L39.7392 110.474L57.4354 103.965L66.0064 120.759L88.2058 64.0669L61.9385 53.7815Z" fill="#579AF7"/>
<path d="M78.7964 53.7815L100.996 110.474L83.2995 103.965L74.7286 120.759L52.5292 64.0669L78.7964 53.7815Z" fill="#5AC5F0"/>
<path d="M102.969 56.0942C101.469 54.9892 101.135 52.8838 102.22 51.3694C103.557 49.5041 102.703 46.8778 100.526 46.1542C98.7579 45.5664 97.7903 43.6673 98.3544 41.8918C99.0488 39.7051 97.4255 37.4707 95.1308 37.4553C93.2678 37.4432 91.7606 35.936 91.7482 34.0726C91.7328 31.7783 89.4994 30.155 87.3123 30.8497C85.5365 31.4135 83.6374 30.4459 83.0499 28.678C82.326 26.5004 79.7001 25.647 77.8347 26.9836C76.32 28.0683 74.2149 27.735 73.1096 26.2351C71.7484 24.3878 68.9873 24.3878 67.6264 26.2351C66.521 27.735 64.4156 28.0683 62.9012 26.9836C61.0359 25.647 58.4096 26.5004 57.686 28.678C57.0986 30.4459 55.1995 31.4135 53.4237 30.8497C51.2369 30.155 49.0029 31.7783 48.9875 34.0726C48.975 35.936 47.4678 37.4432 45.6048 37.4553C43.3104 37.4707 41.6872 39.7047 42.3815 41.8915C42.9454 43.667 41.9778 45.5664 40.2099 46.1542C38.0323 46.8778 37.1791 49.5041 38.5154 51.3694C39.6004 52.8838 39.2669 54.9892 37.7669 56.0942C35.9199 57.4551 35.9199 60.2165 37.7669 61.5777C39.2669 62.6828 39.6004 64.7882 38.5154 66.3026C37.1791 68.1679 38.0323 70.7939 40.2099 71.5178C41.9778 72.1052 42.9454 74.0043 42.3815 75.7801C41.6872 77.9672 43.3104 80.2013 45.6048 80.2163C47.4678 80.2291 48.975 81.736 48.9875 83.599C49.0029 85.8937 51.2369 87.5166 53.4237 86.8223C55.1995 86.2581 57.0986 87.2264 57.686 88.9939C58.4096 91.1715 61.0359 92.0247 62.9012 90.6884C64.4156 89.6037 66.521 89.9369 67.6264 91.4369C68.9873 93.2842 71.7484 93.2842 73.1096 91.4369C74.2149 89.9369 76.32 89.6037 77.8347 90.6884C79.7001 92.0247 82.326 91.1715 83.0499 88.9939C83.6374 87.2264 85.5365 86.2581 87.3123 86.8223C89.4994 87.5166 91.7328 85.8937 91.7482 83.599C91.7606 81.736 93.2678 80.2291 95.1308 80.2163C97.4255 80.2013 99.0488 77.9672 98.3544 75.7801C97.7903 74.0043 98.7579 72.1052 100.526 71.5178C102.703 70.7939 103.557 68.1679 102.22 66.3026C101.135 64.7882 101.469 62.6828 102.969 61.5777C104.816 60.2165 104.816 57.4551 102.969 56.0942Z" fill="#F3C54D"/>
<path d="M98.8015 58.8361C98.8015 43.1324 86.0708 30.4021 70.3675 30.4021C54.6635 30.4021 41.9335 43.1324 41.9335 58.8361C41.9335 74.5397 54.6635 87.2701 70.3675 87.2701C86.0708 87.2701 98.8015 74.5397 98.8015 58.8361Z" fill="#FBE669"/>
<path d="M69.5678 43.5862C61.6512 43.5862 55.2109 50.0579 55.2109 58.0142C55.2109 65.9702 61.6512 72.442 69.5678 72.442C77.4844 72.442 83.9247 65.9699 83.9247 58.0139C83.9247 50.0576 77.4844 43.5862 69.5678 43.5862ZM78.4724 63.2967L86.4949 71.0437L81.9236 75.7774L73.4313 67.5761C72.265 68.0376 70.9953 68.2915 69.6675 68.2915C64.0072 68.2915 59.3985 63.6791 59.3985 58.0142C59.3985 52.3494 64.0072 47.7367 69.6675 47.7367C75.3278 47.7367 79.9366 52.349 79.9366 58.0139C79.9366 59.9439 79.4016 61.7518 78.4724 63.2967Z" fill="#F3B644"/>
<path d="M38.8959 33.4393V31.082H37.5895V33.4393H35.2325V34.7454H37.5895V37.1027H38.8959V34.7454H41.2531V33.4393H38.8959Z" fill="white"/>
<path d="M107.79 44.883V43.0188H106.756V44.883H104.892V45.9165H106.756V47.781H107.79V45.9165H109.654V44.883H107.79Z" fill="white"/>
<path d="M101.923 87.4074C101.923 88.4824 101.052 89.3535 99.9773 89.3535C98.9026 89.3535 98.0312 88.4824 98.0312 87.4074C98.0312 86.3327 98.9026 85.4619 99.9773 85.4619C101.052 85.4619 101.923 86.3327 101.923 87.4074Z" fill="white"/>
<path d="M42.7109 86.6585C42.7109 87.3958 42.1132 87.9935 41.3759 87.9935C40.6385 87.9935 40.0409 87.3958 40.0409 86.6585C40.0409 85.9212 40.6385 85.3235 41.3759 85.3235C42.1132 85.3235 42.7109 85.9212 42.7109 86.6585Z" fill="white"/>
<path d="M39.9265 79.4927C39.9265 80.6354 38.9998 81.5619 37.8569 81.5619C36.7142 81.5619 35.7877 80.6354 35.7877 79.4927C35.7877 78.3501 36.7142 77.4236 37.8569 77.4236C38.9998 77.4236 39.9265 78.3501 39.9265 79.4927Z" fill="white"/>
<path d="M104.171 37.7737C104.171 38.5616 103.533 39.2005 102.745 39.2005C101.957 39.2005 101.318 38.5616 101.318 37.7737C101.318 36.9858 101.957 36.3469 102.745 36.3469C103.533 36.3469 104.171 36.9858 104.171 37.7737Z" fill="white"/>
</svg>
